<?xml version="1.0" encoding="UTF-8" standalone="no"?>
<!DOCTYPE svg PUBLIC "-//W3C//DTD SVG 1.1//EN" "http://www.w3.org/Graphics/SVG/1.1/DTD/svg11.dtd">
<svg width="100%" height="100%" viewBox="0 0 800 800" version="1.1" xmlns="http://www.w3.org/2000/svg" xmlns:xlink="http://www.w3.org/1999/xlink" xml:space="preserve" xmlns:serif="http://www.serif.com/" style="fill-rule:evenodd;clip-rule:evenodd;stroke-linecap:round;">
    <path d="M163.923,58.69C102.566,88.602 47.932,179.496 32.443,280.535C20.165,360.628 31.284,437.573 59.991,486.178C81.805,523.112 119.633,556.1 165.112,573.905C165.464,571.865 165.841,569.85 166.289,567.895C166.848,565.46 170.732,565.475 171.53,567.843C172.158,569.71 172.711,571.75 173.289,573.885C173.586,574.98 173.889,576.098 174.212,577.23C185.826,581.168 197.884,584.113 210.254,585.885C224.295,587.895 236.589,589.04 247.576,589.348C229.639,562.92 223.294,528.618 234.046,486.087C221.498,485.857 211.629,483.895 205.246,479.948C172.624,459.763 150.44,438.345 138.462,412.233C150.561,417.81 164.445,421.785 180.202,423.862C200.565,426.545 225.399,424.568 252.827,419.065C271.383,369.778 303.163,327.118 340.632,291.863C313.988,293.893 289.237,313.035 269.083,328.625C251.778,342.01 237.858,352.775 229.037,347.837C209.002,336.62 222.776,266.825 229.037,249.377C230.863,244.287 233.692,237.785 236.988,230.21L236.988,230.208C244.989,211.816 255.743,187.096 261.595,160.889C266.603,138.455 276.95,91.255 244.063,67.415C217.506,48.163 193.429,44.306 163.923,58.69ZM399.638,311.712C368.325,338.245 340.18,368.82 319.195,400.865C355.568,388.61 393.625,372.53 430.125,354.597C424.883,340.935 414.945,324.405 399.638,311.712ZM518.313,305.763C511.34,290.643 504.953,274.255 500.763,254.363C500.215,251.765 499.727,249.222 499.293,246.733C543.505,225.925 586.278,216.55 618.565,224.451C601.257,247.771 564.438,276.945 518.313,305.763ZM549.018,375.5C583.528,353.805 611.48,330.805 626.945,308.375C627.143,308.09 627.268,307.773 627.333,307.433C635.647,263.03 634.015,239.872 628.338,199.524C626.685,167.977 569.465,167.445 499.175,193.554C506.69,159.782 529.633,142.803 550.85,130.977C582.155,113.528 625.983,122.253 649.775,138.455C673.565,154.657 709.88,198.278 731.168,236.914C752.455,275.55 773.048,340.345 772.49,436.325C772.44,444.82 772.442,453.333 772.442,461.833C772.465,559.92 772.487,656.84 693.6,715.503C654.305,744.72 623.478,752.89 588.418,749.153C562.228,746.36 533.242,739.395 512.423,697.61C540.685,690.025 567.315,679.368 589.8,666.303C590.513,665.89 590.955,665.158 591.015,664.338L593.158,634.49L594.345,617.948C594.488,615.958 592.365,614.6 590.615,615.553C561.838,631.183 529.428,642.568 496.13,649.53C495.57,647.073 495.027,644.553 494.502,641.968C483.723,589.043 502.11,562.52 521.46,534.61C535.828,513.885 550.728,492.393 554.608,458.76C558.668,423.575 555.54,397.578 549.018,375.5ZM428.415,436.185C379.355,456.24 329.65,471.84 288.95,479.948C266.625,523.19 256.48,559.435 255.703,589.42C290.725,589.027 312.06,579.143 336.725,560.958C370.535,536.03 415.615,473.715 423.128,453.775C424.89,449.092 426.725,443.035 428.415,436.185ZM138.462,412.233C30.2,362.34 64.782,184.421 177.966,94.106C179.145,93.165 180.882,93.492 181.65,94.79L204.552,133.542C204.984,134.274 205.007,135.191 204.627,135.951C135.043,275.005 112.169,354.92 138.462,412.233ZM662.475,432.837C661.678,430.47 657.793,430.453 657.235,432.888C656.545,435.898 656.028,439.035 655.503,442.21C653.215,456.078 650.818,470.607 633.495,477.705C631.48,478.533 632.04,483.393 634.218,483.393C651.025,483.393 662.475,496.4 667.305,517.587C667.875,520.09 671.03,519.495 671.148,516.933C671.755,503.633 673.288,483.53 687.528,475.465C689.808,474.175 689.843,468.515 687.34,467.735C670.648,462.543 667.125,449.54 664.235,438.88C663.658,436.745 663.103,434.705 662.475,432.837Z" style="fill:rgb(20,20,21);"/>
    <path d="M252.827,419.063C225.399,424.565 200.565,426.545 180.202,423.862C164.445,421.785 150.561,417.808 138.462,412.233M252.827,419.063C328.54,217.933 624.548,127.18 628.338,199.524M252.827,419.063C273.72,414.873 296.118,408.638 319.195,400.863M628.338,199.524C628.497,202.559 628.143,205.882 627.235,209.495C625.438,214.127 622.507,219.137 618.565,224.451M628.338,199.524C634.015,239.872 635.647,263.03 627.333,307.433C627.268,307.773 627.143,308.09 626.945,308.375C577.418,380.213 399.798,457.867 288.95,479.948M234.046,486.085C221.498,485.857 211.629,483.895 205.246,479.948C172.624,459.763 150.441,438.345 138.462,412.233M234.046,486.085C248.997,486.358 267.753,484.168 288.95,479.948M234.046,486.085C221.779,534.608 231.765,572.418 255.83,600.045M288.95,479.948C263.92,528.43 254.2,568.113 255.83,600.045M618.565,224.451C579.355,277.282 439.985,360.17 319.195,400.863M618.565,224.451C537.078,204.51 388.773,294.618 319.195,400.863M152.653,187.061L146.392,199.524M173.94,150.918L166.427,164.627M146.392,160.888L137.627,175.844M200.237,447.543L209.002,458.76M229.037,451.28L234.046,462.498M609.703,279.29L594.678,289.26M569.633,307.955L555.86,319.17M602.19,307.955L588.418,319.17M569.633,645.708L555.86,651.94M545.843,665.648L528.31,673.127M593.158,634.49L594.345,617.948C594.488,615.958 592.365,614.6 590.615,615.553C481.255,674.955 319.408,673.04 255.83,600.045M593.158,634.49L591.015,664.338C590.955,665.158 590.513,665.89 589.8,666.303C477.753,731.398 262.8,736.753 255.83,600.045M593.158,634.49C606.49,628.153 615.548,622.678 622.505,615.795M637.253,593.363C634.628,599.175 631.945,604.05 628.88,608.318M622.505,615.795C622.505,615.795 632.228,639.783 646.017,643.215C656.035,645.708 672.313,639.475 673.565,623.273C674.262,614.248 672.313,607.073 664.8,603.333C652.133,597.028 628.88,608.318 628.88,608.318M622.505,615.795C624.838,613.49 626.935,611.025 628.88,608.318M588.418,437.573C588.31,445.532 585.63,451.9 574.643,475.465M569.633,447.543C574.125,456.868 576.14,461.927 593.158,475.465M111.331,550.988L111.331,584.637M88.791,577.16C106.727,572.068 116.592,568.7 132.618,558.465M138.462,412.233C30.2,362.34 64.782,184.421 177.966,94.106C179.145,93.165 180.882,93.492 181.65,94.79L204.552,133.542C204.984,134.274 205.007,135.191 204.627,135.951C135.043,275.005 112.169,354.92 138.462,412.233ZM687.528,475.465C673.288,483.53 671.755,503.633 671.148,516.933C671.03,519.495 667.875,520.09 667.305,517.587C662.475,496.4 651.025,483.39 634.218,483.39C632.04,483.39 631.48,478.533 633.495,477.705C654.783,468.982 653.53,449.04 657.235,432.888C657.793,430.453 661.678,430.47 662.475,432.837C666.24,444.02 667.305,461.503 687.34,467.735C689.843,468.515 689.808,474.175 687.528,475.465ZM196.582,610.47C182.342,618.535 180.81,638.638 180.202,651.94C180.085,654.5 176.93,655.095 176.359,652.593C171.53,631.405 160.081,618.398 143.273,618.398C141.094,618.398 140.535,613.538 142.55,612.71C163.837,603.988 162.585,584.045 166.29,567.893C166.848,565.46 170.732,565.475 171.53,567.843C175.296,579.025 176.359,596.51 196.395,602.74C198.898,603.52 198.861,609.18 196.582,610.47Z" style="fill:none;fill-rule:nonzero;stroke:black;stroke-width:12.5px;"/>
</svg>
