<?xml version="1.0" encoding="UTF-8" standalone="no"?>
<!DOCTYPE svg PUBLIC "-//W3C//DTD SVG 1.1//EN" "http://www.w3.org/Graphics/SVG/1.1/DTD/svg11.dtd">
<svg width="100%" height="100%" viewBox="0 0 800 800" version="1.1" xmlns="http://www.w3.org/2000/svg" xmlns:xlink="http://www.w3.org/1999/xlink" xml:space="preserve" xmlns:serif="http://www.serif.com/" style="fill-rule:evenodd;clip-rule:evenodd;stroke-linecap:round;">
    <path d="M629.558,384.355C629.598,382.755 629.618,381.153 629.618,379.545C629.618,252.77 499.868,150 339.81,150C179.752,150 50,252.77 50,379.545C50,433.473 73.477,483.055 112.777,522.23C122.479,492.777 133.446,460.643 135.827,458.383C140.286,454.15 186.713,437.225 186.713,437.225C185.892,432.923 185.339,428.548 187.101,423.473C187.512,422.293 187.886,421.157 188.245,420.068C190.568,413.02 192.289,407.798 199.363,403.375C205.093,399.793 211.013,401.287 217.091,402.825C222.579,404.212 228.195,405.632 233.917,403.375C248.173,397.75 259.457,385.095 257.325,370.583C256.655,366.035 253.935,364.603 251.21,363.168C248.49,361.737 245.765,360.305 245.063,355.773C243.279,344.258 247.431,331.097 259.553,329.328C266.308,328.342 273.138,331.188 280.163,334.113C288.213,337.463 296.518,340.923 305.255,338.847C312.565,337.115 308.52,327.225 304.277,316.853C300.76,308.248 297.105,299.313 299.68,294.42C309.06,276.62 312.593,274.535 327.587,265.695C328.633,265.08 329.73,264.433 330.893,263.743C331.82,263.193 334.357,263.34 337.543,263.523C342.01,263.777 347.745,264.105 352.07,262.685C360.342,259.967 360.992,253.012 361.673,245.75C362.308,238.96 362.968,231.899 369.905,227.778C379.673,221.974 386.75,220.344 397.77,223.547C411.755,227.611 417.235,237.432 420.063,251.05C421.112,256.095 419.038,261.112 417.058,265.9C414.515,272.048 412.128,277.818 416.72,282.785C419.73,286.04 423.345,286.743 427.56,287.563C428.383,287.72 429.228,287.885 430.095,288.073C436.703,289.508 439.493,284.775 442.343,279.94C445.145,275.183 448.008,270.328 454.618,271.148C463.723,272.28 470.168,276.87 476.91,282.785C483.99,288.993 484.48,298.403 484.938,307.185C485.472,317.48 485.962,326.918 496.975,329.328C504.233,330.917 514.53,331 521.275,327.212C523.82,325.785 525.752,323.868 527.693,321.945C530.955,318.71 534.233,315.462 540.445,314.52C549.053,313.212 554.11,313.133 560.51,318.75C561.3,319.443 562.088,320.07 562.838,320.662C566.035,323.198 568.515,325.163 567.198,329.328C565.813,333.705 564.048,337.9 562.295,342.065C559.815,347.965 557.358,353.802 556.05,360.005C555.835,361.025 555.608,362.05 555.378,363.075C553.393,371.958 551.382,380.962 558.28,387.507C565.855,394.698 572.253,389.273 580.193,382.54L580.573,382.22C585.063,378.415 583.463,373.745 581.91,369.218C580.32,364.573 578.783,360.08 583.918,356.833C587.26,354.715 592.898,352.64 596.178,354.715C604.98,360.285 616.358,369.925 629.558,384.355ZM625.778,417.005C625.155,417.35 624.53,417.688 623.91,418.023C617.82,421.315 612.215,424.342 614.012,430.878C615.117,434.898 617.375,436.653 620.367,437.3C622.545,430.647 624.355,423.877 625.778,417.005Z" style="fill:rgb(20,20,21);"/>
    <path d="M170.104,480.595C170.104,480.595 184.099,463.355 187.101,454.15C189.17,447.81 187.734,442.573 186.713,437.225M666.402,450.977C666.402,442.293 654.495,437.225 644.108,437.225C630.89,437.225 616.445,444.212 613.108,432.075C609.768,419.918 632.315,420.423 635.683,408.273C637.455,401.88 639.618,395.782 635.19,390.683C619.585,372.7 611.01,357.488 599.313,354.712C594.298,353.523 588.025,351.143 583.918,356.833C577.028,366.373 591.788,373.755 580.573,382.22C572.055,388.648 563.113,396.533 555.418,389.228C547.723,381.925 552.09,370.505 554.165,360.665C556.392,350.085 563.873,344.82 567.96,334.48C571.723,324.958 565.843,319.083 561.69,315.438C555.29,309.82 549.053,313.212 540.445,314.52C530.54,316.023 528.1,323.38 521.275,327.212C519.49,328.215 517.405,328.975 514.808,329.328C509.208,330.087 502.488,330.535 496.975,329.328C484.07,326.503 485.615,314.025 484.603,301.825C484.015,294.738 482.563,287.74 476.91,282.785C470.168,276.87 462.612,269.02 454.618,271.148C441.673,274.597 444.365,295.15 431.257,292.305C425.943,291.15 420.315,286.675 416.72,282.785C408.555,273.953 422.48,264.258 422.48,251.167C422.48,237.286 411.755,227.611 397.77,223.547C386.75,220.344 379.575,220.369 369.805,226.172C355.45,234.702 368.075,257.428 352.07,262.685C344.665,265.118 342.765,263.743 330.893,263.743C310.86,263.743 306.23,274.06 299.68,294.42C293.303,314.248 318.63,335.675 305.255,338.847C288.89,342.73 274.045,327.212 259.553,329.328C247.431,331.097 238.845,339.625 240.629,351.143C242.657,364.235 254.425,359.475 257.325,370.583C261.038,384.805 248.173,397.75 233.917,403.375C221.859,408.132 210.267,396.555 199.363,403.375C191.194,408.483 189.775,412.548 186.713,421.365C184.951,426.438 185.892,432.923 186.713,437.225M666.402,450.977C666.402,457.325 657.485,480.538 657.485,480.538M666.402,450.977C666.402,450.977 712.103,461.555 715.445,463.67M186.713,437.225C186.713,437.225 140.286,454.15 135.827,458.383M135.827,458.383C131.7,462.298 101.783,555.958 97.36,569.853C97.024,570.908 97.422,571.98 98.344,572.595C269.1,686.31 659.453,660.318 749.065,563.078C749.668,562.425 749.845,561.568 749.57,560.723C745.805,549.148 718.558,465.64 715.445,463.67M135.827,458.383C135.827,458.383 157.006,481.083 211.624,495.405C296.338,517.62 410.033,512.33 410.033,512.33M715.445,463.67C657.278,482.455 622.345,489.56 558.28,499.638M275.158,460.498C275.158,460.498 274.045,448.862 292.993,437.225C300.347,432.71 281.032,426.295 282.963,418.185C284.325,412.458 287.46,409.175 292.993,406.55C299.68,403.375 323.088,407.608 330.893,403.375C338.9,399.033 339.01,390.967 338.695,382.22C338.408,374.245 331.998,370.87 334.235,363.177C337.728,351.173 364.33,360.005 364.33,360.005M376.592,307.115C376.592,307.115 390.313,299.915 389.967,292.305C389.778,288.125 381.655,290.453 376.592,289.133C369.313,287.233 364.33,282.785 364.33,282.785M449.045,338.847C449.045,338.847 432.203,325.403 420.063,327.212C411.352,328.513 411.35,334.485 405.573,342.023C400.275,348.933 395.168,357.328 402.23,361.063C411.48,365.955 415.808,352.03 425.638,355.773C433.065,358.603 439.013,362.12 439.013,371.64C439.013,378.25 432.298,382.453 436.782,387.507C442.11,393.513 452.097,381.972 457.962,387.507C464.143,393.342 456.848,408.665 456.848,408.665M383.28,440.4C383.28,440.4 388.595,449.133 387.738,457.325C387.083,463.585 379.83,468.065 381.05,474.25C383.23,485.295 402.8,464 414.49,465.788C423.925,467.23 424.025,476.915 433.44,478.48C438.155,479.265 441.293,480.255 445.7,478.48C453.23,475.45 454.618,460.498 454.618,460.498M493.63,430.878C496.305,430.878 505.147,434.053 508.12,437.225C511.093,440.4 494.068,454.335 499.203,463.67C507.227,478.255 534.873,440.4 534.873,440.4M145.859,526.58C142.459,532.673 140.884,536.133 139.171,542.448M151.433,559.372C148.071,564.363 146.922,567.045 145.859,571.568M186.713,542.448C184.887,549.37 183.66,553.128 180.414,559.372" style="fill:none;fill-rule:nonzero;stroke:black;stroke-width:12.5px;"/>
</svg>
